<svg width="800" height="600" viewBox="0 0 800 600" fill="none" xmlns="http://www.w3.org/2000/svg">
  <!-- Background -->
  <rect width="800" height="600" fill="#1A1A2E" />
  
  <!-- Game Grid -->
  <rect x="50" y="50" width="700" height="500" rx="8" fill="#16213E" />
  
  <!-- Game Character -->
  <circle cx="400" cy="300" r="20" fill="#E94560" />
  
  <!-- Game Elements -->
  <rect x="200" y="150" width="80" height="80" rx="8" fill="#0F3460" />
  <rect x="500" y="150" width="80" height="80" rx="8" fill="#0F3460" />
  <rect x="200" y="350" width="80" height="80" rx="8" fill="#0F3460" />
  <rect x="500" y="350" width="80" height="80" rx="8" fill="#0F3460" />
  
  <!-- Game Paths -->
  <rect x="240" y="230" width="320" height="10" rx="5" fill="#533483" />
  <rect x="240" y="350" width="260" height="10" rx="5" fill="#533483" />
  <rect x="240" y="230" width="10" height="130" rx="5" fill="#533483" />
  <rect x="500" y="230" width="10" height="130" rx="5" fill="#533483" />
  
  <!-- Game UI Elements -->
  <rect x="50" y="20" width="700" height="30" rx="4" fill="#0F3460" />
  <rect x="60" y="25" width="100" height="20" rx="4" fill="#533483" />
  <rect x="180" y="25" width="100" height="20" rx="4" fill="#533483" />
  <rect x="680" y="25" width="60" height="20" rx="4" fill="#E94560" />
  
  <!-- Game Stats -->
  <rect x="50" y="550" width="700" height="30" rx="4" fill="#0F3460" />
  <rect x="60" y="555" width="60" height="20" rx="4" fill="#533483" />
  <rect x="130" y="555" width="60" height="20" rx="4" fill="#533483" />
  <rect x="200" y="555" width="60" height="20" rx="4" fill="#533483" />
  
  <!-- Game Icons -->
  <circle cx="100" cy="100" r="15" fill="#E94560" />
  <circle cx="700" cy="100" r="15" fill="#E94560" />
  <circle cx="100" cy="500" r="15" fill="#E94560" />
  <circle cx="700" cy="500" r="15" fill="#E94560" />
  
  <!-- Game Particles -->
  <circle cx="300" cy="200" r="5" fill="#E94560" opacity="0.6" />
  <circle cx="320" cy="220" r="3" fill="#E94560" opacity="0.6" />
  <circle cx="340" cy="190" r="4" fill="#E94560" opacity="0.6" />
  <circle cx="450" cy="400" r="5" fill="#E94560" opacity="0.6" />
  <circle cx="470" cy="420" r="3" fill="#E94560" opacity="0.6" />
  <circle cx="490" cy="390" r="4" fill="#E94560" opacity="0.6" />
</svg> 