<svg width="800" height="600" viewBox="0 0 800 600" fill="none" xmlns="http://www.w3.org/2000/svg">
  <!-- Background -->
  <rect width="800" height="600" fill="#1E1E2E" />
  
  <!-- Header -->
  <rect y="0" width="800" height="80" fill="#2A2A3C" />
  <rect x="40" y="30" width="200" height="20" rx="4" fill="#6E6E96" />
  <rect x="600" y="30" width="40" height="20" rx="4" fill="#6E6E96" />
  <rect x="660" y="30" width="40" height="20" rx="4" fill="#6E6E96" />
  <rect x="720" y="30" width="40" height="20" rx="4" fill="#6E6E96" />
  
  <!-- Sidebar -->
  <rect x="0" y="80" width="250" height="520" fill="#2A2A3C" />
  <rect x="30" y="120" width="190" height="20" rx="4" fill="#6E6E96" />
  <rect x="30" y="160" width="190" height="20" rx="4" fill="#8B5CF6" />
  <rect x="30" y="200" width="190" height="20" rx="4" fill="#6E6E96" />
  <rect x="50" y="240" width="170" height="15" rx="4" fill="#6E6E96" />
  <rect x="50" y="270" width="170" height="15" rx="4" fill="#6E6E96" />
  <rect x="50" y="300" width="170" height="15" rx="4" fill="#6E6E96" />
  <rect x="30" y="340" width="190" height="20" rx="4" fill="#6E6E96" />
  
  <!-- Main Content -->
  <rect x="280" y="120" width="480" height="60" rx="4" fill="#8B5CF6" />
  <rect x="280" y="200" width="480" height="20" rx="4" fill="#6E6E96" />
  <rect x="280" y="240" width="480" height="20" rx="4" fill="#6E6E96" />
  <rect x="280" y="280" width="480" height="20" rx="4" fill="#6E6E96" />
  
  <!-- Project Card -->
  <rect x="280" y="340" width="230" height="200" rx="8" fill="#2A2A3C" />
  <rect x="300" y="360" width="190" height="100" rx="4" fill="#3F3F5A" />
  <rect x="300" y="480" width="190" height="15" rx="4" fill="#6E6E96" />
  <rect x="300" y="505" width="120" height="15" rx="4" fill="#6E6E96" />
  
  <!-- Project Card 2 -->
  <rect x="530" y="340" width="230" height="200" rx="8" fill="#2A2A3C" />
  <rect x="550" y="360" width="190" height="100" rx="4" fill="#3F3F5A" />
  <rect x="550" y="480" width="190" height="15" rx="4" fill="#6E6E96" />
  <rect x="550" y="505" width="120" height="15" rx="4" fill="#6E6E96" />
</svg> 